<mxfile host="app.diagrams.net" modified="2023-09-07T13:58:27.538Z" agent="Mozilla/5.0 (Windows NT 10.0; Win64; x64) AppleWebKit/537.36 (KHTML, like Gecko) Chrome/116.0.0.0 Safari/537.36" etag="n6QQS6uYlFAMji0Wehux" version="21.7.2" type="device">
  <diagram id="R2lEEEUBdFMjLlhIrx00" name="Page-1">
    <mxGraphModel dx="477" dy="335" grid="1" gridSize="10" guides="1" tooltips="1" connect="1" arrows="1" fold="1" page="1" pageScale="1" pageWidth="1654" pageHeight="1169" math="0" shadow="0" extFonts="Permanent Marker^https://fonts.googleapis.com/css?family=Permanent+Marker">
      <root>
        <mxCell id="0" />
        <mxCell id="1" parent="0" />
        <mxCell id="k5sNIqVDAsuTKzZ9p33I-143" value="" style="endArrow=none;html=1;rounded=0;entryX=0;entryY=0.5;entryDx=0;entryDy=0;exitX=1;exitY=0.5;exitDx=0;exitDy=0;" parent="1" source="k5sNIqVDAsuTKzZ9p33I-61" target="k5sNIqVDAsuTKzZ9p33I-58" edge="1">
          <mxGeometry width="50" height="50" relative="1" as="geometry">
            <mxPoint x="675" y="945.21" as="sourcePoint" />
            <mxPoint x="721" y="944.7800000000001" as="targetPoint" />
          </mxGeometry>
        </mxCell>
        <mxCell id="k5sNIqVDAsuTKzZ9p33I-42" value="" style="rounded=0;whiteSpace=wrap;html=1;" parent="1" vertex="1">
          <mxGeometry x="1164" y="1120" width="90" height="30" as="geometry" />
        </mxCell>
        <mxCell id="k5sNIqVDAsuTKzZ9p33I-47" value="Carta di credito" style="text;html=1;strokeColor=none;fillColor=none;align=center;verticalAlign=middle;whiteSpace=wrap;rounded=0;" parent="1" vertex="1">
          <mxGeometry x="1174" y="1120" width="60" height="30" as="geometry" />
        </mxCell>
        <mxCell id="k5sNIqVDAsuTKzZ9p33I-49" value="" style="rhombus;whiteSpace=wrap;html=1;" parent="1" vertex="1">
          <mxGeometry x="1149" y="1030" width="110" height="50" as="geometry" />
        </mxCell>
        <mxCell id="k5sNIqVDAsuTKzZ9p33I-50" value="" style="rounded=0;whiteSpace=wrap;html=1;" parent="1" vertex="1">
          <mxGeometry x="790" y="1120" width="90" height="30" as="geometry" />
        </mxCell>
        <mxCell id="k5sNIqVDAsuTKzZ9p33I-51" value="Dispositivo" style="text;html=1;strokeColor=none;fillColor=none;align=center;verticalAlign=middle;whiteSpace=wrap;rounded=0;" parent="1" vertex="1">
          <mxGeometry x="805" y="1120" width="60" height="30" as="geometry" />
        </mxCell>
        <mxCell id="k5sNIqVDAsuTKzZ9p33I-52" value="" style="rhombus;whiteSpace=wrap;html=1;" parent="1" vertex="1">
          <mxGeometry x="780" y="1020" width="110" height="50" as="geometry" />
        </mxCell>
        <mxCell id="k5sNIqVDAsuTKzZ9p33I-53" value="" style="rounded=0;whiteSpace=wrap;html=1;" parent="1" vertex="1">
          <mxGeometry x="1164" y="930" width="90" height="30" as="geometry" />
        </mxCell>
        <mxCell id="k5sNIqVDAsuTKzZ9p33I-58" value="" style="rounded=0;whiteSpace=wrap;html=1;" parent="1" vertex="1">
          <mxGeometry x="791" y="930" width="90" height="30" as="geometry" />
        </mxCell>
        <mxCell id="k5sNIqVDAsuTKzZ9p33I-59" value="" style="rhombus;whiteSpace=wrap;html=1;" parent="1" vertex="1">
          <mxGeometry x="970" y="921" width="110" height="50" as="geometry" />
        </mxCell>
        <mxCell id="k5sNIqVDAsuTKzZ9p33I-61" value="" style="rounded=0;whiteSpace=wrap;html=1;" parent="1" vertex="1">
          <mxGeometry x="270" y="929" width="90" height="30" as="geometry" />
        </mxCell>
        <mxCell id="k5sNIqVDAsuTKzZ9p33I-66" value="" style="rhombus;whiteSpace=wrap;html=1;" parent="1" vertex="1">
          <mxGeometry x="7" y="580" width="110" height="50" as="geometry" />
        </mxCell>
        <mxCell id="k5sNIqVDAsuTKzZ9p33I-67" value="" style="rounded=0;whiteSpace=wrap;html=1;" parent="1" vertex="1">
          <mxGeometry x="17" y="371" width="90" height="30" as="geometry" />
        </mxCell>
        <mxCell id="k5sNIqVDAsuTKzZ9p33I-69" value="Connessione" style="text;html=1;strokeColor=none;fillColor=none;align=center;verticalAlign=middle;whiteSpace=wrap;rounded=0;" parent="1" vertex="1">
          <mxGeometry x="803" y="931" width="60" height="30" as="geometry" />
        </mxCell>
        <mxCell id="k5sNIqVDAsuTKzZ9p33I-70" value="" style="rounded=0;whiteSpace=wrap;html=1;" parent="1" vertex="1">
          <mxGeometry x="850" y="470" width="120" height="60" as="geometry" />
        </mxCell>
        <mxCell id="k5sNIqVDAsuTKzZ9p33I-71" value="Film" style="text;html=1;strokeColor=none;fillColor=none;align=center;verticalAlign=middle;whiteSpace=wrap;rounded=0;" parent="1" vertex="1">
          <mxGeometry x="877" y="485" width="60" height="30" as="geometry" />
        </mxCell>
        <mxCell id="k5sNIqVDAsuTKzZ9p33I-72" value="" style="rounded=0;whiteSpace=wrap;html=1;" parent="1" vertex="1">
          <mxGeometry x="270" y="474" width="84" height="30" as="geometry" />
        </mxCell>
        <mxCell id="k5sNIqVDAsuTKzZ9p33I-74" value="File" style="text;html=1;strokeColor=none;fillColor=none;align=center;verticalAlign=middle;whiteSpace=wrap;rounded=0;" parent="1" vertex="1">
          <mxGeometry x="285" y="473" width="60" height="30" as="geometry" />
        </mxCell>
        <mxCell id="k5sNIqVDAsuTKzZ9p33I-76" value="Server" style="text;html=1;strokeColor=none;fillColor=none;align=center;verticalAlign=middle;whiteSpace=wrap;rounded=0;" parent="1" vertex="1">
          <mxGeometry x="285" y="931" width="60" height="30" as="geometry" />
        </mxCell>
        <mxCell id="k5sNIqVDAsuTKzZ9p33I-77" value="" style="rounded=0;whiteSpace=wrap;html=1;" parent="1" vertex="1">
          <mxGeometry x="1208" y="350" width="90" height="30" as="geometry" />
        </mxCell>
        <mxCell id="k5sNIqVDAsuTKzZ9p33I-78" value="" style="rounded=0;whiteSpace=wrap;html=1;" parent="1" vertex="1">
          <mxGeometry x="865" y="210" width="90" height="30" as="geometry" />
        </mxCell>
        <mxCell id="k5sNIqVDAsuTKzZ9p33I-79" value="" style="rounded=0;whiteSpace=wrap;html=1;" parent="1" vertex="1">
          <mxGeometry x="575" y="210" width="90" height="30" as="geometry" />
        </mxCell>
        <mxCell id="k5sNIqVDAsuTKzZ9p33I-83" value="Cliente" style="text;html=1;strokeColor=none;fillColor=none;align=center;verticalAlign=middle;whiteSpace=wrap;rounded=0;" parent="1" vertex="1">
          <mxGeometry x="1179" y="932" width="60" height="30" as="geometry" />
        </mxCell>
        <mxCell id="k5sNIqVDAsuTKzZ9p33I-87" value="" style="rhombus;whiteSpace=wrap;html=1;" parent="1" vertex="1">
          <mxGeometry x="590" y="465" width="110" height="50" as="geometry" />
        </mxCell>
        <mxCell id="k5sNIqVDAsuTKzZ9p33I-93" value="" style="rounded=0;whiteSpace=wrap;html=1;" parent="1" vertex="1">
          <mxGeometry x="1490" y="460" width="90" height="30" as="geometry" />
        </mxCell>
        <mxCell id="k5sNIqVDAsuTKzZ9p33I-94" value="Critico" style="text;html=1;strokeColor=none;fillColor=none;align=center;verticalAlign=middle;whiteSpace=wrap;rounded=0;" parent="1" vertex="1">
          <mxGeometry x="1500" y="460" width="60" height="30" as="geometry" />
        </mxCell>
        <mxCell id="k5sNIqVDAsuTKzZ9p33I-95" value="Paese" style="text;html=1;strokeColor=none;fillColor=none;align=center;verticalAlign=middle;whiteSpace=wrap;rounded=0;" parent="1" vertex="1">
          <mxGeometry x="37" y="371" width="60" height="30" as="geometry" />
        </mxCell>
        <mxCell id="k5sNIqVDAsuTKzZ9p33I-96" value="Attore" style="text;html=1;strokeColor=none;fillColor=none;align=center;verticalAlign=middle;whiteSpace=wrap;rounded=0;" parent="1" vertex="1">
          <mxGeometry x="590" y="210" width="60" height="30" as="geometry" />
        </mxCell>
        <mxCell id="k5sNIqVDAsuTKzZ9p33I-97" value="Regista" style="text;html=1;strokeColor=none;fillColor=none;align=center;verticalAlign=middle;whiteSpace=wrap;rounded=0;" parent="1" vertex="1">
          <mxGeometry x="880" y="211" width="60" height="30" as="geometry" />
        </mxCell>
        <mxCell id="k5sNIqVDAsuTKzZ9p33I-98" value="" style="rhombus;whiteSpace=wrap;html=1;" parent="1" vertex="1">
          <mxGeometry x="852" y="260" width="110" height="50" as="geometry" />
        </mxCell>
        <mxCell id="k5sNIqVDAsuTKzZ9p33I-99" value="" style="rhombus;whiteSpace=wrap;html=1;" parent="1" vertex="1">
          <mxGeometry x="565" y="260" width="110" height="50" as="geometry" />
        </mxCell>
        <mxCell id="k5sNIqVDAsuTKzZ9p33I-100" value="Premio" style="text;html=1;strokeColor=none;fillColor=none;align=center;verticalAlign=middle;whiteSpace=wrap;rounded=0;" parent="1" vertex="1">
          <mxGeometry x="1223" y="351" width="60" height="30" as="geometry" />
        </mxCell>
        <mxCell id="k5sNIqVDAsuTKzZ9p33I-103" value="" style="endArrow=none;html=1;rounded=0;entryX=0;entryY=0.5;entryDx=0;entryDy=0;exitX=1;exitY=0.5;exitDx=0;exitDy=0;" parent="1" source="k5sNIqVDAsuTKzZ9p33I-87" edge="1">
          <mxGeometry width="50" height="50" relative="1" as="geometry">
            <mxPoint x="760" y="490" as="sourcePoint" />
            <mxPoint x="850" y="490" as="targetPoint" />
          </mxGeometry>
        </mxCell>
        <mxCell id="k5sNIqVDAsuTKzZ9p33I-104" value="" style="endArrow=none;html=1;rounded=0;" parent="1" edge="1">
          <mxGeometry width="50" height="50" relative="1" as="geometry">
            <mxPoint x="910" y="470" as="sourcePoint" />
            <mxPoint x="910" y="310" as="targetPoint" />
          </mxGeometry>
        </mxCell>
        <mxCell id="k5sNIqVDAsuTKzZ9p33I-105" value="" style="rhombus;whiteSpace=wrap;html=1;" parent="1" vertex="1">
          <mxGeometry x="1060" y="345" width="110" height="50" as="geometry" />
        </mxCell>
        <mxCell id="k5sNIqVDAsuTKzZ9p33I-107" value="" style="endArrow=none;html=1;rounded=0;" parent="1" edge="1">
          <mxGeometry width="50" height="50" relative="1" as="geometry">
            <mxPoint x="970" y="470" as="sourcePoint" />
            <mxPoint x="1000" y="470" as="targetPoint" />
          </mxGeometry>
        </mxCell>
        <mxCell id="k5sNIqVDAsuTKzZ9p33I-108" value="" style="endArrow=none;html=1;rounded=0;" parent="1" edge="1">
          <mxGeometry width="50" height="50" relative="1" as="geometry">
            <mxPoint x="970" y="529.71" as="sourcePoint" />
            <mxPoint x="1000" y="529.71" as="targetPoint" />
          </mxGeometry>
        </mxCell>
        <mxCell id="k5sNIqVDAsuTKzZ9p33I-109" value="" style="endArrow=none;html=1;rounded=0;exitX=1;exitY=0.25;exitDx=0;exitDy=0;" parent="1" edge="1">
          <mxGeometry width="50" height="50" relative="1" as="geometry">
            <mxPoint x="970" y="494" as="sourcePoint" />
            <mxPoint x="1240" y="494" as="targetPoint" />
          </mxGeometry>
        </mxCell>
        <mxCell id="k5sNIqVDAsuTKzZ9p33I-110" value="" style="endArrow=none;html=1;rounded=0;fontStyle=1" parent="1" edge="1">
          <mxGeometry width="50" height="50" relative="1" as="geometry">
            <mxPoint x="970" y="503.33" as="sourcePoint" />
            <mxPoint x="1000" y="503.33" as="targetPoint" />
          </mxGeometry>
        </mxCell>
        <mxCell id="k5sNIqVDAsuTKzZ9p33I-111" value="Id" style="text;html=1;strokeColor=none;fillColor=none;align=center;verticalAlign=middle;whiteSpace=wrap;rounded=0;" parent="1" vertex="1">
          <mxGeometry x="1000" y="454" width="60" height="30" as="geometry" />
        </mxCell>
        <mxCell id="k5sNIqVDAsuTKzZ9p33I-112" value="Titolo" style="text;html=1;strokeColor=none;fillColor=none;align=center;verticalAlign=middle;whiteSpace=wrap;rounded=0;" parent="1" vertex="1">
          <mxGeometry x="1000" y="490" width="60" height="30" as="geometry" />
        </mxCell>
        <mxCell id="k5sNIqVDAsuTKzZ9p33I-113" value="Descrizione" style="text;html=1;strokeColor=none;fillColor=none;align=center;verticalAlign=middle;whiteSpace=wrap;rounded=0;" parent="1" vertex="1">
          <mxGeometry x="1010" y="514" width="60" height="30" as="geometry" />
        </mxCell>
        <mxCell id="k5sNIqVDAsuTKzZ9p33I-114" value="" style="endArrow=none;html=1;rounded=0;" parent="1" edge="1">
          <mxGeometry width="50" height="50" relative="1" as="geometry">
            <mxPoint x="920" y="470" as="sourcePoint" />
            <mxPoint x="920" y="370" as="targetPoint" />
          </mxGeometry>
        </mxCell>
        <mxCell id="k5sNIqVDAsuTKzZ9p33I-115" value="" style="endArrow=none;html=1;rounded=0;" parent="1" edge="1">
          <mxGeometry width="50" height="50" relative="1" as="geometry">
            <mxPoint x="920" y="370" as="sourcePoint" />
            <mxPoint x="1059" y="370" as="targetPoint" />
          </mxGeometry>
        </mxCell>
        <mxCell id="k5sNIqVDAsuTKzZ9p33I-117" value="" style="endArrow=none;html=1;rounded=0;" parent="1" edge="1">
          <mxGeometry width="50" height="50" relative="1" as="geometry">
            <mxPoint x="900" y="471" as="sourcePoint" />
            <mxPoint x="900" y="350" as="targetPoint" />
          </mxGeometry>
        </mxCell>
        <mxCell id="k5sNIqVDAsuTKzZ9p33I-122" value="" style="endArrow=none;html=1;rounded=0;" parent="1" edge="1">
          <mxGeometry width="50" height="50" relative="1" as="geometry">
            <mxPoint x="820" y="530" as="sourcePoint" />
            <mxPoint x="850" y="530" as="targetPoint" />
          </mxGeometry>
        </mxCell>
        <mxCell id="k5sNIqVDAsuTKzZ9p33I-123" value="" style="endArrow=none;html=1;rounded=0;" parent="1" edge="1">
          <mxGeometry width="50" height="50" relative="1" as="geometry">
            <mxPoint x="820" y="470" as="sourcePoint" />
            <mxPoint x="850" y="470" as="targetPoint" />
            <Array as="points">
              <mxPoint x="840" y="470" />
            </Array>
          </mxGeometry>
        </mxCell>
        <mxCell id="k5sNIqVDAsuTKzZ9p33I-124" value="" style="endArrow=none;html=1;rounded=0;" parent="1" edge="1">
          <mxGeometry width="50" height="50" relative="1" as="geometry">
            <mxPoint x="820" y="508.74" as="sourcePoint" />
            <mxPoint x="850" y="508.74" as="targetPoint" />
            <Array as="points">
              <mxPoint x="830" y="508.74" />
            </Array>
          </mxGeometry>
        </mxCell>
        <mxCell id="k5sNIqVDAsuTKzZ9p33I-125" value="" style="endArrow=none;html=1;rounded=0;exitX=0.5;exitY=0;exitDx=0;exitDy=0;" parent="1" source="k5sNIqVDAsuTKzZ9p33I-66" edge="1">
          <mxGeometry width="50" height="50" relative="1" as="geometry">
            <mxPoint x="63" y="560" as="sourcePoint" />
            <mxPoint x="61" y="410" as="targetPoint" />
          </mxGeometry>
        </mxCell>
        <mxCell id="k5sNIqVDAsuTKzZ9p33I-126" value="" style="endArrow=none;html=1;rounded=0;" parent="1" edge="1">
          <mxGeometry width="50" height="50" relative="1" as="geometry">
            <mxPoint x="61" y="950" as="sourcePoint" />
            <mxPoint x="61.370000000000005" y="630" as="targetPoint" />
          </mxGeometry>
        </mxCell>
        <mxCell id="k5sNIqVDAsuTKzZ9p33I-127" value="Appartenenza" style="text;html=1;strokeColor=none;fillColor=none;align=center;verticalAlign=middle;whiteSpace=wrap;rounded=0;" parent="1" vertex="1">
          <mxGeometry x="32" y="590" width="60" height="30" as="geometry" />
        </mxCell>
        <mxCell id="k5sNIqVDAsuTKzZ9p33I-128" value="Codifica" style="text;html=1;strokeColor=none;fillColor=none;align=center;verticalAlign=middle;whiteSpace=wrap;rounded=0;" parent="1" vertex="1">
          <mxGeometry x="615" y="475" width="60" height="30" as="geometry" />
        </mxCell>
        <mxCell id="k5sNIqVDAsuTKzZ9p33I-130" value="Parte" style="text;html=1;strokeColor=none;fillColor=none;align=center;verticalAlign=middle;whiteSpace=wrap;rounded=0;" parent="1" vertex="1">
          <mxGeometry x="590" y="270" width="60" height="30" as="geometry" />
        </mxCell>
        <mxCell id="k5sNIqVDAsuTKzZ9p33I-131" value="Regia" style="text;html=1;strokeColor=none;fillColor=none;align=center;verticalAlign=middle;whiteSpace=wrap;rounded=0;" parent="1" vertex="1">
          <mxGeometry x="880" y="270" width="60" height="30" as="geometry" />
        </mxCell>
        <mxCell id="k5sNIqVDAsuTKzZ9p33I-132" value="Assegnazione" style="text;html=1;strokeColor=none;fillColor=none;align=center;verticalAlign=middle;whiteSpace=wrap;rounded=0;" parent="1" vertex="1">
          <mxGeometry x="1085" y="355" width="60" height="30" as="geometry" />
        </mxCell>
        <mxCell id="k5sNIqVDAsuTKzZ9p33I-135" value="Connessione Cliente" style="text;html=1;strokeColor=none;fillColor=none;align=center;verticalAlign=middle;whiteSpace=wrap;rounded=0;" parent="1" vertex="1">
          <mxGeometry x="996" y="937" width="60" height="30" as="geometry" />
        </mxCell>
        <mxCell id="k5sNIqVDAsuTKzZ9p33I-136" value="Mezzo" style="text;html=1;strokeColor=none;fillColor=none;align=center;verticalAlign=middle;whiteSpace=wrap;rounded=0;" parent="1" vertex="1">
          <mxGeometry x="805" y="1030" width="60" height="30" as="geometry" />
        </mxCell>
        <mxCell id="k5sNIqVDAsuTKzZ9p33I-137" value="Possesso" style="text;html=1;strokeColor=none;fillColor=none;align=center;verticalAlign=middle;whiteSpace=wrap;rounded=0;" parent="1" vertex="1">
          <mxGeometry x="1174" y="1040" width="60" height="30" as="geometry" />
        </mxCell>
        <mxCell id="k5sNIqVDAsuTKzZ9p33I-141" value="" style="endArrow=none;html=1;rounded=0;" parent="1" edge="1">
          <mxGeometry width="50" height="50" relative="1" as="geometry">
            <mxPoint x="60" y="944" as="sourcePoint" />
            <mxPoint x="270" y="944" as="targetPoint" />
          </mxGeometry>
        </mxCell>
        <mxCell id="k5sNIqVDAsuTKzZ9p33I-147" value="" style="endArrow=none;html=1;rounded=0;entryX=0;entryY=0.5;entryDx=0;entryDy=0;" parent="1" target="k5sNIqVDAsuTKzZ9p33I-53" edge="1">
          <mxGeometry width="50" height="50" relative="1" as="geometry">
            <mxPoint x="1080" y="945" as="sourcePoint" />
            <mxPoint x="1355" y="943.52" as="targetPoint" />
            <Array as="points" />
          </mxGeometry>
        </mxCell>
        <mxCell id="k5sNIqVDAsuTKzZ9p33I-150" value="" style="rhombus;whiteSpace=wrap;html=1;" parent="1" vertex="1">
          <mxGeometry x="1189" y="800" width="110" height="50" as="geometry" />
        </mxCell>
        <mxCell id="k5sNIqVDAsuTKzZ9p33I-159" value="" style="endArrow=none;html=1;rounded=0;exitX=1;exitY=0.5;exitDx=0;exitDy=0;" parent="1" source="k5sNIqVDAsuTKzZ9p33I-72" edge="1">
          <mxGeometry width="50" height="50" relative="1" as="geometry">
            <mxPoint x="530" y="490" as="sourcePoint" />
            <mxPoint x="590" y="490" as="targetPoint" />
          </mxGeometry>
        </mxCell>
        <mxCell id="k5sNIqVDAsuTKzZ9p33I-160" value="" style="endArrow=none;html=1;rounded=0;entryX=0;entryY=0.5;entryDx=0;entryDy=0;" parent="1" source="RoZiD9-LQM_SnvsdjY7X-25" edge="1">
          <mxGeometry width="50" height="50" relative="1" as="geometry">
            <mxPoint x="570" y="830" as="sourcePoint" />
            <mxPoint x="838.5" y="830.07" as="targetPoint" />
          </mxGeometry>
        </mxCell>
        <mxCell id="k5sNIqVDAsuTKzZ9p33I-161" value="" style="endArrow=none;html=1;rounded=0;" parent="1" edge="1">
          <mxGeometry width="50" height="50" relative="1" as="geometry">
            <mxPoint x="571" y="830" as="sourcePoint" />
            <mxPoint x="571" y="560" as="targetPoint" />
          </mxGeometry>
        </mxCell>
        <mxCell id="k5sNIqVDAsuTKzZ9p33I-162" value="" style="endArrow=none;html=1;rounded=0;exitX=1;exitY=1;exitDx=0;exitDy=0;" parent="1" source="k5sNIqVDAsuTKzZ9p33I-74" edge="1">
          <mxGeometry width="50" height="50" relative="1" as="geometry">
            <mxPoint x="474" y="510" as="sourcePoint" />
            <mxPoint x="345" y="560" as="targetPoint" />
          </mxGeometry>
        </mxCell>
        <mxCell id="k5sNIqVDAsuTKzZ9p33I-163" value="" style="endArrow=none;html=1;rounded=0;" parent="1" source="RoZiD9-LQM_SnvsdjY7X-22" edge="1">
          <mxGeometry width="50" height="50" relative="1" as="geometry">
            <mxPoint x="345" y="560" as="sourcePoint" />
            <mxPoint x="570" y="560" as="targetPoint" />
          </mxGeometry>
        </mxCell>
        <mxCell id="k5sNIqVDAsuTKzZ9p33I-165" value="" style="endArrow=none;html=1;rounded=0;" parent="1" edge="1">
          <mxGeometry width="50" height="50" relative="1" as="geometry">
            <mxPoint x="620" y="350" as="sourcePoint" />
            <mxPoint x="899" y="350" as="targetPoint" />
          </mxGeometry>
        </mxCell>
        <mxCell id="k5sNIqVDAsuTKzZ9p33I-166" value="" style="endArrow=none;html=1;rounded=0;" parent="1" edge="1">
          <mxGeometry width="50" height="50" relative="1" as="geometry">
            <mxPoint x="620" y="350" as="sourcePoint" />
            <mxPoint x="619.71" y="310" as="targetPoint" />
          </mxGeometry>
        </mxCell>
        <mxCell id="k5sNIqVDAsuTKzZ9p33I-167" value="" style="endArrow=none;html=1;rounded=0;" parent="1" source="czPrn0Utlx6H9Ysgk2uM-20" edge="1">
          <mxGeometry width="50" height="50" relative="1" as="geometry">
            <mxPoint x="170" y="385" as="sourcePoint" />
            <mxPoint x="890" y="385" as="targetPoint" />
          </mxGeometry>
        </mxCell>
        <mxCell id="k5sNIqVDAsuTKzZ9p33I-168" value="" style="endArrow=none;html=1;rounded=0;exitX=0.5;exitY=0;exitDx=0;exitDy=0;" parent="1" source="k5sNIqVDAsuTKzZ9p33I-150" edge="1">
          <mxGeometry width="50" height="50" relative="1" as="geometry">
            <mxPoint x="1245" y="603" as="sourcePoint" />
            <mxPoint x="1243" y="493" as="targetPoint" />
          </mxGeometry>
        </mxCell>
        <mxCell id="k5sNIqVDAsuTKzZ9p33I-172" value="" style="endArrow=none;html=1;rounded=0;exitX=0.661;exitY=0.043;exitDx=0;exitDy=0;exitPerimeter=0;" parent="1" edge="1">
          <mxGeometry width="50" height="50" relative="1" as="geometry">
            <mxPoint x="835" y="1020" as="sourcePoint" />
            <mxPoint x="835" y="960" as="targetPoint" />
          </mxGeometry>
        </mxCell>
        <mxCell id="k5sNIqVDAsuTKzZ9p33I-173" value="" style="endArrow=none;html=1;rounded=0;exitX=0.661;exitY=0.043;exitDx=0;exitDy=0;exitPerimeter=0;" parent="1" edge="1">
          <mxGeometry width="50" height="50" relative="1" as="geometry">
            <mxPoint x="835.55" y="1120" as="sourcePoint" />
            <mxPoint x="835.9300000000001" y="1070" as="targetPoint" />
          </mxGeometry>
        </mxCell>
        <mxCell id="k5sNIqVDAsuTKzZ9p33I-175" value="" style="endArrow=none;html=1;rounded=0;entryX=0;entryY=0.5;entryDx=0;entryDy=0;exitX=1;exitY=0.5;exitDx=0;exitDy=0;" parent="1" source="k5sNIqVDAsuTKzZ9p33I-58" target="k5sNIqVDAsuTKzZ9p33I-59" edge="1">
          <mxGeometry width="50" height="50" relative="1" as="geometry">
            <mxPoint x="814" y="945.94" as="sourcePoint" />
            <mxPoint x="865" y="945.73" as="targetPoint" />
          </mxGeometry>
        </mxCell>
        <mxCell id="k5sNIqVDAsuTKzZ9p33I-182" value="" style="endArrow=none;html=1;rounded=0;" parent="1" edge="1">
          <mxGeometry width="50" height="50" relative="1" as="geometry">
            <mxPoint x="620" y="260" as="sourcePoint" />
            <mxPoint x="619.7900000000001" y="241" as="targetPoint" />
          </mxGeometry>
        </mxCell>
        <mxCell id="k5sNIqVDAsuTKzZ9p33I-183" value="" style="endArrow=none;html=1;rounded=0;exitX=0.5;exitY=0;exitDx=0;exitDy=0;" parent="1" source="k5sNIqVDAsuTKzZ9p33I-98" edge="1">
          <mxGeometry width="50" height="50" relative="1" as="geometry">
            <mxPoint x="907.0799999999999" y="280" as="sourcePoint" />
            <mxPoint x="906.79" y="240" as="targetPoint" />
          </mxGeometry>
        </mxCell>
        <mxCell id="k5sNIqVDAsuTKzZ9p33I-184" value="" style="endArrow=none;html=1;rounded=0;" parent="1" edge="1">
          <mxGeometry width="50" height="50" relative="1" as="geometry">
            <mxPoint x="1170" y="369.8" as="sourcePoint" />
            <mxPoint x="1210" y="369.8" as="targetPoint" />
          </mxGeometry>
        </mxCell>
        <mxCell id="k5sNIqVDAsuTKzZ9p33I-185" value="" style="endArrow=none;html=1;rounded=0;entryX=0.5;entryY=1;entryDx=0;entryDy=0;" parent="1" target="k5sNIqVDAsuTKzZ9p33I-150" edge="1">
          <mxGeometry width="50" height="50" relative="1" as="geometry">
            <mxPoint x="1244" y="930" as="sourcePoint" />
            <mxPoint x="1243.71" y="890" as="targetPoint" />
          </mxGeometry>
        </mxCell>
        <mxCell id="k5sNIqVDAsuTKzZ9p33I-187" value="" style="endArrow=none;html=1;rounded=0;" parent="1" edge="1">
          <mxGeometry width="50" height="50" relative="1" as="geometry">
            <mxPoint x="1204" y="1120" as="sourcePoint" />
            <mxPoint x="1203.71" y="1080" as="targetPoint" />
          </mxGeometry>
        </mxCell>
        <mxCell id="k5sNIqVDAsuTKzZ9p33I-188" value="" style="endArrow=none;html=1;rounded=0;exitX=0.5;exitY=-0.066;exitDx=0;exitDy=0;exitPerimeter=0;" parent="1" source="k5sNIqVDAsuTKzZ9p33I-49" edge="1">
          <mxGeometry width="50" height="50" relative="1" as="geometry">
            <mxPoint x="1204" y="999" as="sourcePoint" />
            <mxPoint x="1203.71" y="959" as="targetPoint" />
          </mxGeometry>
        </mxCell>
        <mxCell id="k5sNIqVDAsuTKzZ9p33I-193" value="" style="rhombus;whiteSpace=wrap;html=1;" parent="1" vertex="1">
          <mxGeometry x="129" y="465" width="110" height="50" as="geometry" />
        </mxCell>
        <mxCell id="k5sNIqVDAsuTKzZ9p33I-194" value="" style="endArrow=none;html=1;rounded=0;" parent="1" edge="1">
          <mxGeometry width="50" height="50" relative="1" as="geometry">
            <mxPoint x="85" y="490" as="sourcePoint" />
            <mxPoint x="130" y="490" as="targetPoint" />
          </mxGeometry>
        </mxCell>
        <mxCell id="k5sNIqVDAsuTKzZ9p33I-195" value="" style="endArrow=none;html=1;rounded=0;exitX=1;exitY=0.5;exitDx=0;exitDy=0;" parent="1" source="k5sNIqVDAsuTKzZ9p33I-193" edge="1">
          <mxGeometry width="50" height="50" relative="1" as="geometry">
            <mxPoint x="320" y="490" as="sourcePoint" />
            <mxPoint x="270" y="490" as="targetPoint" />
          </mxGeometry>
        </mxCell>
        <mxCell id="k5sNIqVDAsuTKzZ9p33I-196" value="" style="endArrow=none;html=1;rounded=0;" parent="1" edge="1">
          <mxGeometry width="50" height="50" relative="1" as="geometry">
            <mxPoint x="85" y="401" as="sourcePoint" />
            <mxPoint x="85" y="490" as="targetPoint" />
          </mxGeometry>
        </mxCell>
        <mxCell id="k5sNIqVDAsuTKzZ9p33I-197" value="Non supportato" style="text;html=1;strokeColor=none;fillColor=none;align=center;verticalAlign=middle;whiteSpace=wrap;rounded=0;" parent="1" vertex="1">
          <mxGeometry x="154" y="475" width="60" height="30" as="geometry" />
        </mxCell>
        <mxCell id="czPrn0Utlx6H9Ysgk2uM-1" value="" style="rounded=0;whiteSpace=wrap;html=1;" parent="1" vertex="1">
          <mxGeometry x="997" y="820" width="90" height="30" as="geometry" />
        </mxCell>
        <mxCell id="czPrn0Utlx6H9Ysgk2uM-2" value="Lingua" style="text;html=1;strokeColor=none;fillColor=none;align=center;verticalAlign=middle;whiteSpace=wrap;rounded=0;" parent="1" vertex="1">
          <mxGeometry x="1012" y="820" width="60" height="30" as="geometry" />
        </mxCell>
        <mxCell id="czPrn0Utlx6H9Ysgk2uM-3" value="" style="rhombus;whiteSpace=wrap;html=1;" parent="1" vertex="1">
          <mxGeometry x="1072" y="729" width="110" height="50" as="geometry" />
        </mxCell>
        <mxCell id="czPrn0Utlx6H9Ysgk2uM-4" value="" style="rhombus;whiteSpace=wrap;html=1;" parent="1" vertex="1">
          <mxGeometry x="894" y="730" width="110" height="50" as="geometry" />
        </mxCell>
        <mxCell id="czPrn0Utlx6H9Ysgk2uM-5" value="Audio" style="text;html=1;strokeColor=none;fillColor=none;align=center;verticalAlign=middle;whiteSpace=wrap;rounded=0;" parent="1" vertex="1">
          <mxGeometry x="916" y="740" width="60" height="30" as="geometry" />
        </mxCell>
        <mxCell id="czPrn0Utlx6H9Ysgk2uM-6" value="Sottotitoli" style="text;html=1;strokeColor=none;fillColor=none;align=center;verticalAlign=middle;whiteSpace=wrap;rounded=0;" parent="1" vertex="1">
          <mxGeometry x="1097" y="739" width="60" height="30" as="geometry" />
        </mxCell>
        <mxCell id="czPrn0Utlx6H9Ysgk2uM-7" value="" style="endArrow=none;html=1;rounded=0;entryX=0.25;entryY=1;entryDx=0;entryDy=0;exitX=0.5;exitY=0;exitDx=0;exitDy=0;" parent="1" source="czPrn0Utlx6H9Ysgk2uM-4" edge="1">
          <mxGeometry width="50" height="50" relative="1" as="geometry">
            <mxPoint x="948" y="670" as="sourcePoint" />
            <mxPoint x="948" y="530" as="targetPoint" />
          </mxGeometry>
        </mxCell>
        <mxCell id="czPrn0Utlx6H9Ysgk2uM-8" value="" style="endArrow=none;html=1;rounded=0;entryX=0.25;entryY=1;entryDx=0;entryDy=0;" parent="1" edge="1">
          <mxGeometry width="50" height="50" relative="1" as="geometry">
            <mxPoint x="958" y="670" as="sourcePoint" />
            <mxPoint x="958" y="531" as="targetPoint" />
          </mxGeometry>
        </mxCell>
        <mxCell id="czPrn0Utlx6H9Ysgk2uM-9" value="" style="endArrow=none;html=1;rounded=0;exitX=1;exitY=0.25;exitDx=0;exitDy=0;" parent="1" edge="1">
          <mxGeometry width="50" height="50" relative="1" as="geometry">
            <mxPoint x="958.5" y="669.26" as="sourcePoint" />
            <mxPoint x="1128" y="669" as="targetPoint" />
            <Array as="points" />
          </mxGeometry>
        </mxCell>
        <mxCell id="czPrn0Utlx6H9Ysgk2uM-10" value="" style="endArrow=none;html=1;rounded=0;exitX=0.5;exitY=0;exitDx=0;exitDy=0;" parent="1" source="czPrn0Utlx6H9Ysgk2uM-3" edge="1">
          <mxGeometry width="50" height="50" relative="1" as="geometry">
            <mxPoint x="1132.29" y="710" as="sourcePoint" />
            <mxPoint x="1127" y="670" as="targetPoint" />
          </mxGeometry>
        </mxCell>
        <mxCell id="czPrn0Utlx6H9Ysgk2uM-11" value="" style="endArrow=none;html=1;rounded=0;" parent="1" edge="1">
          <mxGeometry width="50" height="50" relative="1" as="geometry">
            <mxPoint x="949" y="830" as="sourcePoint" />
            <mxPoint x="948.58" y="780" as="targetPoint" />
          </mxGeometry>
        </mxCell>
        <mxCell id="czPrn0Utlx6H9Ysgk2uM-12" value="" style="endArrow=none;html=1;rounded=0;" parent="1" edge="1">
          <mxGeometry width="50" height="50" relative="1" as="geometry">
            <mxPoint x="1127" y="830" as="sourcePoint" />
            <mxPoint x="1126.58" y="779" as="targetPoint" />
          </mxGeometry>
        </mxCell>
        <mxCell id="czPrn0Utlx6H9Ysgk2uM-13" value="" style="endArrow=none;html=1;rounded=0;entryX=0;entryY=0.5;entryDx=0;entryDy=0;" parent="1" edge="1">
          <mxGeometry width="50" height="50" relative="1" as="geometry">
            <mxPoint x="948" y="830.21" as="sourcePoint" />
            <mxPoint x="999" y="830" as="targetPoint" />
          </mxGeometry>
        </mxCell>
        <mxCell id="czPrn0Utlx6H9Ysgk2uM-14" value="" style="endArrow=none;html=1;rounded=0;" parent="1" edge="1">
          <mxGeometry width="50" height="50" relative="1" as="geometry">
            <mxPoint x="1087" y="830.21" as="sourcePoint" />
            <mxPoint x="1127" y="830" as="targetPoint" />
          </mxGeometry>
        </mxCell>
        <mxCell id="czPrn0Utlx6H9Ysgk2uM-15" value="" style="endArrow=none;html=1;rounded=0;exitX=1;exitY=0.25;exitDx=0;exitDy=0;" parent="1" edge="1">
          <mxGeometry width="50" height="50" relative="1" as="geometry">
            <mxPoint x="970" y="481" as="sourcePoint" />
            <mxPoint x="1270" y="481" as="targetPoint" />
          </mxGeometry>
        </mxCell>
        <mxCell id="czPrn0Utlx6H9Ysgk2uM-16" value="" style="rhombus;whiteSpace=wrap;html=1;" parent="1" vertex="1">
          <mxGeometry x="1270" y="455" width="110" height="50" as="geometry" />
        </mxCell>
        <mxCell id="czPrn0Utlx6H9Ysgk2uM-17" value="" style="endArrow=none;html=1;rounded=0;exitX=1;exitY=0.5;exitDx=0;exitDy=0;" parent="1" source="czPrn0Utlx6H9Ysgk2uM-16" edge="1">
          <mxGeometry width="50" height="50" relative="1" as="geometry">
            <mxPoint x="1320" y="479.86" as="sourcePoint" />
            <mxPoint x="1489.5" y="479.6" as="targetPoint" />
            <Array as="points" />
          </mxGeometry>
        </mxCell>
        <mxCell id="czPrn0Utlx6H9Ysgk2uM-18" value="Recensione" style="text;html=1;strokeColor=none;fillColor=none;align=center;verticalAlign=middle;whiteSpace=wrap;rounded=0;" parent="1" vertex="1">
          <mxGeometry x="1214" y="810" width="60" height="30" as="geometry" />
        </mxCell>
        <mxCell id="czPrn0Utlx6H9Ysgk2uM-19" value="Critica" style="text;html=1;strokeColor=none;fillColor=none;align=center;verticalAlign=middle;whiteSpace=wrap;rounded=0;" parent="1" vertex="1">
          <mxGeometry x="1295" y="465" width="60" height="30" as="geometry" />
        </mxCell>
        <mxCell id="czPrn0Utlx6H9Ysgk2uM-21" value="" style="endArrow=none;html=1;rounded=0;exitX=1;exitY=0.5;exitDx=0;exitDy=0;" parent="1" source="k5sNIqVDAsuTKzZ9p33I-67" target="czPrn0Utlx6H9Ysgk2uM-20" edge="1">
          <mxGeometry width="50" height="50" relative="1" as="geometry">
            <mxPoint x="160" y="385" as="sourcePoint" />
            <mxPoint x="890" y="385" as="targetPoint" />
          </mxGeometry>
        </mxCell>
        <mxCell id="czPrn0Utlx6H9Ysgk2uM-20" value="" style="rhombus;whiteSpace=wrap;html=1;" parent="1" vertex="1">
          <mxGeometry x="325" y="361" width="110" height="50" as="geometry" />
        </mxCell>
        <mxCell id="czPrn0Utlx6H9Ysgk2uM-22" value="Produzione" style="text;html=1;strokeColor=none;fillColor=none;align=center;verticalAlign=middle;whiteSpace=wrap;rounded=0;" parent="1" vertex="1">
          <mxGeometry x="351" y="371" width="60" height="30" as="geometry" />
        </mxCell>
        <mxCell id="RoZiD9-LQM_SnvsdjY7X-1" value="(0, N)" style="text;html=1;strokeColor=none;fillColor=none;align=center;verticalAlign=middle;whiteSpace=wrap;rounded=0;" parent="1" vertex="1">
          <mxGeometry x="620" y="240" width="60" height="30" as="geometry" />
        </mxCell>
        <mxCell id="RoZiD9-LQM_SnvsdjY7X-2" value="(0, N)" style="text;html=1;strokeColor=none;fillColor=none;align=center;verticalAlign=middle;whiteSpace=wrap;rounded=0;" parent="1" vertex="1">
          <mxGeometry x="615" y="300" width="60" height="30" as="geometry" />
        </mxCell>
        <mxCell id="RoZiD9-LQM_SnvsdjY7X-3" value="(0, N)" style="text;html=1;strokeColor=none;fillColor=none;align=center;verticalAlign=middle;whiteSpace=wrap;rounded=0;" parent="1" vertex="1">
          <mxGeometry x="915" y="241" width="60" height="30" as="geometry" />
        </mxCell>
        <mxCell id="RoZiD9-LQM_SnvsdjY7X-4" value="(1, 1)" style="text;html=1;strokeColor=none;fillColor=none;align=center;verticalAlign=middle;whiteSpace=wrap;rounded=0;" parent="1" vertex="1">
          <mxGeometry x="910" y="300" width="60" height="30" as="geometry" />
        </mxCell>
        <mxCell id="RoZiD9-LQM_SnvsdjY7X-5" value="(1, 1)" style="text;html=1;strokeColor=none;fillColor=none;align=center;verticalAlign=middle;whiteSpace=wrap;rounded=0;" parent="1" vertex="1">
          <mxGeometry x="1145" y="341" width="60" height="30" as="geometry" />
        </mxCell>
        <mxCell id="RoZiD9-LQM_SnvsdjY7X-6" value="(0, N)" style="text;html=1;strokeColor=none;fillColor=none;align=center;verticalAlign=middle;whiteSpace=wrap;rounded=0;" parent="1" vertex="1">
          <mxGeometry x="1015" y="341" width="60" height="30" as="geometry" />
        </mxCell>
        <mxCell id="RoZiD9-LQM_SnvsdjY7X-13" value="" style="endArrow=none;html=1;rounded=0;exitX=0.526;exitY=-0.007;exitDx=0;exitDy=0;exitPerimeter=0;" parent="1" source="RoZiD9-LQM_SnvsdjY7X-21" edge="1">
          <mxGeometry width="50" height="50" relative="1" as="geometry">
            <mxPoint x="837.85" y="920" as="sourcePoint" />
            <mxPoint x="838" y="830" as="targetPoint" />
          </mxGeometry>
        </mxCell>
        <mxCell id="RoZiD9-LQM_SnvsdjY7X-16" value="" style="endArrow=none;html=1;rounded=0;entryX=0.5;entryY=1;entryDx=0;entryDy=0;exitX=0.5;exitY=0;exitDx=0;exitDy=0;" parent="1" target="k5sNIqVDAsuTKzZ9p33I-74" edge="1">
          <mxGeometry width="50" height="50" relative="1" as="geometry">
            <mxPoint x="314" y="810" as="sourcePoint" />
            <mxPoint x="310" y="690" as="targetPoint" />
          </mxGeometry>
        </mxCell>
        <mxCell id="RoZiD9-LQM_SnvsdjY7X-20" value="" style="endArrow=none;html=1;rounded=0;exitX=0.5;exitY=0;exitDx=0;exitDy=0;" parent="1" source="k5sNIqVDAsuTKzZ9p33I-61" edge="1">
          <mxGeometry width="50" height="50" relative="1" as="geometry">
            <mxPoint x="315" y="929" as="sourcePoint" />
            <mxPoint x="314" y="810" as="targetPoint" />
          </mxGeometry>
        </mxCell>
        <mxCell id="RoZiD9-LQM_SnvsdjY7X-23" value="" style="endArrow=none;html=1;rounded=0;" parent="1" target="RoZiD9-LQM_SnvsdjY7X-22" edge="1">
          <mxGeometry width="50" height="50" relative="1" as="geometry">
            <mxPoint x="345" y="560" as="sourcePoint" />
            <mxPoint x="570" y="560" as="targetPoint" />
          </mxGeometry>
        </mxCell>
        <mxCell id="RoZiD9-LQM_SnvsdjY7X-22" value="" style="rhombus;whiteSpace=wrap;html=1;" parent="1" vertex="1">
          <mxGeometry x="515" y="535" width="110" height="50" as="geometry" />
        </mxCell>
        <mxCell id="RoZiD9-LQM_SnvsdjY7X-24" value="" style="endArrow=none;html=1;rounded=0;exitX=0.526;exitY=-0.007;exitDx=0;exitDy=0;exitPerimeter=0;" parent="1" source="k5sNIqVDAsuTKzZ9p33I-58" target="RoZiD9-LQM_SnvsdjY7X-21" edge="1">
          <mxGeometry width="50" height="50" relative="1" as="geometry">
            <mxPoint x="838" y="930" as="sourcePoint" />
            <mxPoint x="838" y="830" as="targetPoint" />
          </mxGeometry>
        </mxCell>
        <mxCell id="RoZiD9-LQM_SnvsdjY7X-21" value="" style="rhombus;whiteSpace=wrap;html=1;" parent="1" vertex="1">
          <mxGeometry x="783" y="805" width="110" height="50" as="geometry" />
        </mxCell>
        <mxCell id="RoZiD9-LQM_SnvsdjY7X-26" value="" style="endArrow=none;html=1;rounded=0;entryX=0;entryY=0.5;entryDx=0;entryDy=0;" parent="1" target="RoZiD9-LQM_SnvsdjY7X-25" edge="1">
          <mxGeometry width="50" height="50" relative="1" as="geometry">
            <mxPoint x="570" y="830" as="sourcePoint" />
            <mxPoint x="838.5" y="830.07" as="targetPoint" />
          </mxGeometry>
        </mxCell>
        <mxCell id="RoZiD9-LQM_SnvsdjY7X-25" value="" style="rounded=0;whiteSpace=wrap;html=1;" parent="1" vertex="1">
          <mxGeometry x="536" y="815" width="84" height="30" as="geometry" />
        </mxCell>
        <mxCell id="RoZiD9-LQM_SnvsdjY7X-27" value="Visualizzazione" style="text;html=1;strokeColor=none;fillColor=none;align=center;verticalAlign=middle;whiteSpace=wrap;rounded=0;" parent="1" vertex="1">
          <mxGeometry x="550" y="815" width="60" height="30" as="geometry" />
        </mxCell>
        <mxCell id="RoZiD9-LQM_SnvsdjY7X-28" value="(1, 1)" style="text;html=1;strokeColor=none;fillColor=none;align=center;verticalAlign=middle;whiteSpace=wrap;rounded=0;" parent="1" vertex="1">
          <mxGeometry x="548" y="460" width="60" height="30" as="geometry" />
        </mxCell>
        <mxCell id="RoZiD9-LQM_SnvsdjY7X-29" value="(0, N)" style="text;html=1;strokeColor=none;fillColor=none;align=center;verticalAlign=middle;whiteSpace=wrap;rounded=0;" parent="1" vertex="1">
          <mxGeometry x="692.5" y="460" width="60" height="30" as="geometry" />
        </mxCell>
        <mxCell id="RoZiD9-LQM_SnvsdjY7X-30" value="(0, N)" style="text;html=1;strokeColor=none;fillColor=none;align=center;verticalAlign=middle;whiteSpace=wrap;rounded=0;" parent="1" vertex="1">
          <mxGeometry x="216" y="455" width="60" height="30" as="geometry" />
        </mxCell>
        <mxCell id="RoZiD9-LQM_SnvsdjY7X-31" value="(0, N)" style="text;html=1;strokeColor=none;fillColor=none;align=center;verticalAlign=middle;whiteSpace=wrap;rounded=0;" parent="1" vertex="1">
          <mxGeometry x="92" y="460" width="60" height="30" as="geometry" />
        </mxCell>
        <mxCell id="RoZiD9-LQM_SnvsdjY7X-32" value="(0, N)" style="text;html=1;strokeColor=none;fillColor=none;align=center;verticalAlign=middle;whiteSpace=wrap;rounded=0;" parent="1" vertex="1">
          <mxGeometry x="282" y="355" width="60" height="30" as="geometry" />
        </mxCell>
        <mxCell id="RoZiD9-LQM_SnvsdjY7X-33" value="(1, 1)" style="text;html=1;strokeColor=none;fillColor=none;align=center;verticalAlign=middle;whiteSpace=wrap;rounded=0;" parent="1" vertex="1">
          <mxGeometry x="420" y="355" width="60" height="30" as="geometry" />
        </mxCell>
        <mxCell id="RoZiD9-LQM_SnvsdjY7X-34" value="(0, N)" style="text;html=1;strokeColor=none;fillColor=none;align=center;verticalAlign=middle;whiteSpace=wrap;rounded=0;" parent="1" vertex="1">
          <mxGeometry x="60" y="630" width="60" height="30" as="geometry" />
        </mxCell>
        <mxCell id="RoZiD9-LQM_SnvsdjY7X-35" value="(1, 1)" style="text;html=1;strokeColor=none;fillColor=none;align=center;verticalAlign=middle;whiteSpace=wrap;rounded=0;" parent="1" vertex="1">
          <mxGeometry x="57" y="555" width="60" height="30" as="geometry" />
        </mxCell>
        <mxCell id="RoZiD9-LQM_SnvsdjY7X-41" value="(1, 1)" style="text;html=1;strokeColor=none;fillColor=none;align=center;verticalAlign=middle;whiteSpace=wrap;rounded=0;" parent="1" vertex="1">
          <mxGeometry x="743" y="805" width="60" height="30" as="geometry" />
        </mxCell>
        <mxCell id="RoZiD9-LQM_SnvsdjY7X-42" value="(1, 1)" style="text;html=1;strokeColor=none;fillColor=none;align=center;verticalAlign=middle;whiteSpace=wrap;rounded=0;" parent="1" vertex="1">
          <mxGeometry x="515" y="580" width="60" height="30" as="geometry" />
        </mxCell>
        <mxCell id="RoZiD9-LQM_SnvsdjY7X-44" value="(0, N)" style="text;html=1;strokeColor=none;fillColor=none;align=center;verticalAlign=middle;whiteSpace=wrap;rounded=0;" parent="1" vertex="1">
          <mxGeometry x="476" y="530" width="60" height="30" as="geometry" />
        </mxCell>
        <mxCell id="RoZiD9-LQM_SnvsdjY7X-45" value="(0, N)" style="text;html=1;strokeColor=none;fillColor=none;align=center;verticalAlign=middle;whiteSpace=wrap;rounded=0;" parent="1" vertex="1">
          <mxGeometry x="834" y="850" width="60" height="30" as="geometry" />
        </mxCell>
        <mxCell id="RoZiD9-LQM_SnvsdjY7X-55" value="(0, N)" style="text;html=1;strokeColor=none;fillColor=none;align=center;verticalAlign=middle;whiteSpace=wrap;rounded=0;" parent="1" vertex="1">
          <mxGeometry x="944" y="779" width="60" height="30" as="geometry" />
        </mxCell>
        <mxCell id="RoZiD9-LQM_SnvsdjY7X-56" value="(0, N)" style="text;html=1;strokeColor=none;fillColor=none;align=center;verticalAlign=middle;whiteSpace=wrap;rounded=0;" parent="1" vertex="1">
          <mxGeometry x="1075" y="775" width="60" height="30" as="geometry" />
        </mxCell>
        <mxCell id="RoZiD9-LQM_SnvsdjY7X-57" value="(0, N)" style="text;html=1;strokeColor=none;fillColor=none;align=center;verticalAlign=middle;whiteSpace=wrap;rounded=0;" parent="1" vertex="1">
          <mxGeometry x="1122" y="700" width="60" height="30" as="geometry" />
        </mxCell>
        <mxCell id="RoZiD9-LQM_SnvsdjY7X-58" value="(0, N)" style="text;html=1;strokeColor=none;fillColor=none;align=center;verticalAlign=middle;whiteSpace=wrap;rounded=0;" parent="1" vertex="1">
          <mxGeometry x="895" y="700" width="60" height="30" as="geometry" />
        </mxCell>
        <mxCell id="RoZiD9-LQM_SnvsdjY7X-59" value="(1, 1)" style="text;html=1;strokeColor=none;fillColor=none;align=center;verticalAlign=middle;whiteSpace=wrap;rounded=0;" parent="1" vertex="1">
          <mxGeometry x="827" y="990" width="60" height="30" as="geometry" />
        </mxCell>
        <mxCell id="RoZiD9-LQM_SnvsdjY7X-60" value="(0, N)" style="text;html=1;strokeColor=none;fillColor=none;align=center;verticalAlign=middle;whiteSpace=wrap;rounded=0;" parent="1" vertex="1">
          <mxGeometry x="833" y="1090" width="60" height="30" as="geometry" />
        </mxCell>
        <mxCell id="RoZiD9-LQM_SnvsdjY7X-61" value="(0, N)" style="text;html=1;strokeColor=none;fillColor=none;align=center;verticalAlign=middle;whiteSpace=wrap;rounded=0;" parent="1" vertex="1">
          <mxGeometry x="1062" y="916" width="60" height="30" as="geometry" />
        </mxCell>
        <mxCell id="RoZiD9-LQM_SnvsdjY7X-62" value="(1, 1)" style="text;html=1;strokeColor=none;fillColor=none;align=center;verticalAlign=middle;whiteSpace=wrap;rounded=0;" parent="1" vertex="1">
          <mxGeometry x="877" y="920" width="60" height="30" as="geometry" />
        </mxCell>
        <mxCell id="RoZiD9-LQM_SnvsdjY7X-63" value="(0, N)" style="text;html=1;strokeColor=none;fillColor=none;align=center;verticalAlign=middle;whiteSpace=wrap;rounded=0;" parent="1" vertex="1">
          <mxGeometry x="1355" y="445" width="60" height="30" as="geometry" />
        </mxCell>
        <mxCell id="RoZiD9-LQM_SnvsdjY7X-64" value="(0, N)" style="text;html=1;strokeColor=none;fillColor=none;align=center;verticalAlign=middle;whiteSpace=wrap;rounded=0;" parent="1" vertex="1">
          <mxGeometry x="1238" y="850" width="60" height="30" as="geometry" />
        </mxCell>
        <mxCell id="RoZiD9-LQM_SnvsdjY7X-65" value="(0, N)" style="text;html=1;strokeColor=none;fillColor=none;align=center;verticalAlign=middle;whiteSpace=wrap;rounded=0;" parent="1" vertex="1">
          <mxGeometry x="1241" y="775" width="60" height="30" as="geometry" />
        </mxCell>
        <mxCell id="RoZiD9-LQM_SnvsdjY7X-66" value="(0, N)" style="text;html=1;strokeColor=none;fillColor=none;align=center;verticalAlign=middle;whiteSpace=wrap;rounded=0;" parent="1" vertex="1">
          <mxGeometry x="1231" y="454" width="60" height="30" as="geometry" />
        </mxCell>
        <mxCell id="RoZiD9-LQM_SnvsdjY7X-69" value="(1, 1)" style="text;html=1;strokeColor=none;fillColor=none;align=center;verticalAlign=middle;whiteSpace=wrap;rounded=0;" parent="1" vertex="1">
          <mxGeometry x="1194" y="1070" width="60" height="30" as="geometry" />
        </mxCell>
        <mxCell id="RoZiD9-LQM_SnvsdjY7X-70" value="(1, N)" style="text;html=1;strokeColor=none;fillColor=none;align=center;verticalAlign=middle;whiteSpace=wrap;rounded=0;" parent="1" vertex="1">
          <mxGeometry x="1194" y="1010" width="60" height="30" as="geometry" />
        </mxCell>
        <mxCell id="qi1QAY_521uCX6fPWnWE-2" value="" style="endArrow=none;html=1;rounded=0;exitX=1;exitY=1;exitDx=0;exitDy=0;" parent="1" edge="1">
          <mxGeometry width="50" height="50" relative="1" as="geometry">
            <mxPoint x="887" y="386" as="sourcePoint" />
            <mxPoint x="887" y="465" as="targetPoint" />
          </mxGeometry>
        </mxCell>
        <mxCell id="Ke6MsTJDtXDtqJl2nJ68-1" value="" style="rhombus;whiteSpace=wrap;html=1;" parent="1" vertex="1">
          <mxGeometry x="10" y="280" width="110" height="50" as="geometry" />
        </mxCell>
        <mxCell id="Ke6MsTJDtXDtqJl2nJ68-2" value="" style="rounded=0;whiteSpace=wrap;html=1;" parent="1" vertex="1">
          <mxGeometry x="20" y="211" width="90" height="30" as="geometry" />
        </mxCell>
        <mxCell id="Ke6MsTJDtXDtqJl2nJ68-3" value="IP-range" style="text;html=1;strokeColor=none;fillColor=none;align=center;verticalAlign=middle;whiteSpace=wrap;rounded=0;" parent="1" vertex="1">
          <mxGeometry x="35" y="211" width="60" height="30" as="geometry" />
        </mxCell>
        <mxCell id="Ke6MsTJDtXDtqJl2nJ68-4" value="localizzazione" style="text;html=1;strokeColor=none;fillColor=none;align=center;verticalAlign=middle;whiteSpace=wrap;rounded=0;" parent="1" vertex="1">
          <mxGeometry x="37" y="290" width="60" height="30" as="geometry" />
        </mxCell>
        <mxCell id="Ke6MsTJDtXDtqJl2nJ68-5" value="(1, 1)" style="text;html=1;strokeColor=none;fillColor=none;align=center;verticalAlign=middle;whiteSpace=wrap;rounded=0;" parent="1" vertex="1">
          <mxGeometry x="69" y="241" width="60" height="30" as="geometry" />
        </mxCell>
        <mxCell id="Ke6MsTJDtXDtqJl2nJ68-6" value="(0, N)" style="text;html=1;strokeColor=none;fillColor=none;align=center;verticalAlign=middle;whiteSpace=wrap;rounded=0;" parent="1" vertex="1">
          <mxGeometry x="69" y="331" width="60" height="30" as="geometry" />
        </mxCell>
        <mxCell id="Ke6MsTJDtXDtqJl2nJ68-7" value="" style="endArrow=none;html=1;rounded=0;" parent="1" edge="1">
          <mxGeometry width="50" height="50" relative="1" as="geometry">
            <mxPoint x="65" y="280" as="sourcePoint" />
            <mxPoint x="64.5" y="240" as="targetPoint" />
          </mxGeometry>
        </mxCell>
        <mxCell id="Ke6MsTJDtXDtqJl2nJ68-8" value="" style="endArrow=none;html=1;rounded=0;" parent="1" edge="1">
          <mxGeometry width="50" height="50" relative="1" as="geometry">
            <mxPoint x="65" y="370" as="sourcePoint" />
            <mxPoint x="64.5" y="330" as="targetPoint" />
          </mxGeometry>
        </mxCell>
        <mxCell id="HGbytWLDPS0W9H9Zn5LI-1" value="" style="rhombus;whiteSpace=wrap;html=1;" vertex="1" parent="1">
          <mxGeometry x="515" y="917" width="110" height="50" as="geometry" />
        </mxCell>
        <mxCell id="k5sNIqVDAsuTKzZ9p33I-134" value="Connessione Server" style="text;html=1;strokeColor=none;fillColor=none;align=center;verticalAlign=middle;whiteSpace=wrap;rounded=0;" parent="1" vertex="1">
          <mxGeometry x="540" y="932" width="60" height="28" as="geometry" />
        </mxCell>
        <mxCell id="HGbytWLDPS0W9H9Zn5LI-2" value="" style="rhombus;whiteSpace=wrap;html=1;" vertex="1" parent="1">
          <mxGeometry x="260" y="679" width="110" height="50" as="geometry" />
        </mxCell>
        <mxCell id="k5sNIqVDAsuTKzZ9p33I-129" value="Presenza" style="text;html=1;strokeColor=none;fillColor=none;align=center;verticalAlign=middle;whiteSpace=wrap;rounded=0;" parent="1" vertex="1">
          <mxGeometry x="285" y="689" width="60" height="30" as="geometry" />
        </mxCell>
        <mxCell id="HGbytWLDPS0W9H9Zn5LI-17" value="" style="rounded=0;whiteSpace=wrap;html=1;" vertex="1" parent="1">
          <mxGeometry x="1565" y="1120" width="80" height="30" as="geometry" />
        </mxCell>
        <mxCell id="HGbytWLDPS0W9H9Zn5LI-18" value="Piano tariffario" style="text;html=1;strokeColor=none;fillColor=none;align=center;verticalAlign=middle;whiteSpace=wrap;rounded=0;" vertex="1" parent="1">
          <mxGeometry x="1575" y="1120" width="60" height="30" as="geometry" />
        </mxCell>
        <mxCell id="HGbytWLDPS0W9H9Zn5LI-19" value="" style="rounded=0;whiteSpace=wrap;html=1;" vertex="1" parent="1">
          <mxGeometry x="1365" y="1120" width="90" height="30" as="geometry" />
        </mxCell>
        <mxCell id="HGbytWLDPS0W9H9Zn5LI-20" value="" style="rhombus;whiteSpace=wrap;html=1;" vertex="1" parent="1">
          <mxGeometry x="1260" y="1120" width="90" height="39" as="geometry" />
        </mxCell>
        <mxCell id="HGbytWLDPS0W9H9Zn5LI-21" value="" style="rhombus;whiteSpace=wrap;html=1;" vertex="1" parent="1">
          <mxGeometry x="1465" y="1120" width="85" height="40" as="geometry" />
        </mxCell>
        <mxCell id="HGbytWLDPS0W9H9Zn5LI-22" value="Sottoscrizione" style="text;html=1;strokeColor=none;fillColor=none;align=center;verticalAlign=middle;whiteSpace=wrap;rounded=0;" vertex="1" parent="1">
          <mxGeometry x="1380" y="1120" width="60" height="30" as="geometry" />
        </mxCell>
        <mxCell id="HGbytWLDPS0W9H9Zn5LI-23" value="Pagamento" style="text;html=1;strokeColor=none;fillColor=none;align=center;verticalAlign=middle;whiteSpace=wrap;rounded=0;" vertex="1" parent="1">
          <mxGeometry x="1275" y="1124.5" width="60" height="30" as="geometry" />
        </mxCell>
        <mxCell id="HGbytWLDPS0W9H9Zn5LI-24" value="Abbonamento" style="text;html=1;strokeColor=none;fillColor=none;align=center;verticalAlign=middle;whiteSpace=wrap;rounded=0;" vertex="1" parent="1">
          <mxGeometry x="1477.5" y="1125" width="60" height="30" as="geometry" />
        </mxCell>
        <mxCell id="HGbytWLDPS0W9H9Zn5LI-25" value="(1, 1)" style="text;html=1;strokeColor=none;fillColor=none;align=center;verticalAlign=middle;whiteSpace=wrap;rounded=0;" vertex="1" parent="1">
          <mxGeometry x="1430" y="1090" width="60" height="30" as="geometry" />
        </mxCell>
        <mxCell id="HGbytWLDPS0W9H9Zn5LI-26" value="(1, 1)" style="text;html=1;strokeColor=none;fillColor=none;align=center;verticalAlign=middle;whiteSpace=wrap;rounded=0;" vertex="1" parent="1">
          <mxGeometry x="1325" y="1090" width="60" height="30" as="geometry" />
        </mxCell>
        <mxCell id="HGbytWLDPS0W9H9Zn5LI-27" value="(0, N)" style="text;html=1;strokeColor=none;fillColor=none;align=center;verticalAlign=middle;whiteSpace=wrap;rounded=0;" vertex="1" parent="1">
          <mxGeometry x="1530" y="1090" width="60" height="30" as="geometry" />
        </mxCell>
      </root>
    </mxGraphModel>
  </diagram>
</mxfile>
